<?xml version="1.0" encoding="utf-8"?>
<!-- Generator: Adobe Illustrator 21.1.0, SVG Export Plug-In . SVG Version: 6.00 Build 0)  -->
<svg version="1.1" id="Capa_1" xmlns="http://www.w3.org/2000/svg" xmlns:xlink="http://www.w3.org/1999/xlink" x="0px" y="0px"
	 viewBox="0 0 624 166" style="enable-background:new 0 0 624 166;" xml:space="preserve">
<style type="text/css">
	.st0{fill:none;stroke:#000000;stroke-miterlimit:10;}
	.st1{fill:none;stroke:#000000;stroke-miterlimit:10;stroke-dasharray:12.138,12.138;}
	.st2{fill:none;stroke:#000000;stroke-miterlimit:10;stroke-dasharray:11.7692,11.7692;}
	.st3{fill:#FFFFFF;}
	.st4{fill:none;}
	.st5{font-family:'MyriadPro-Regular';}
	.st6{font-size:15px;}
	.st7{font-size:18px;}
	.st8{fill:none;stroke:#000000;stroke-miterlimit:10;stroke-dasharray:11.8605,11.8605;}
	.st9{fill:none;stroke:#000000;stroke-miterlimit:10;stroke-dasharray:10.8889,10.8889;}
	.st10{fill:#FFFFFF;stroke:#000000;stroke-miterlimit:10;}
	.st11{font-family:'Roboto-Medium';}
	.st12{font-family:'Roboto-MediumItalic';}
</style>
<g>
	<g>
		<polyline class="st0" points="580.1,159.5 580.1,165.5 574.1,165.5 		"/>
		<line class="st1" x1="561.9" y1="165.5" x2="58.2" y2="165.5"/>
		<polyline class="st0" points="52.1,165.5 46.1,165.5 46.1,159.5 		"/>
		<line class="st2" x1="46.1" y1="147.7" x2="46.1" y2="12.4"/>
		<polyline class="st0" points="46.1,6.5 46.1,0.5 52.1,0.5 		"/>
		<line class="st1" x1="64.3" y1="0.5" x2="568" y2="0.5"/>
		<polyline class="st0" points="574.1,0.5 580.1,0.5 580.1,6.5 		"/>
		<line class="st2" x1="580.1" y1="18.3" x2="580.1" y2="153.6"/>
	</g>
</g>
<g>
	<polygon class="st3" points="552.3,128.2 528.6,80.8 552.3,33.2 599.7,33.2 623.4,80.8 599.7,128.2 	"/>
	<path d="M599.4,33.8l23.5,47l-23.5,47h-46.8l-23.5-47l23.5-47H599.4 M600,32.8h-48l-24,48l24,48h48l24-48L600,32.8L600,32.8z"/>
</g>
<rect x="533.2" y="72.9" class="st4" width="85.5" height="15.8"/>
<text transform="matrix(1 0 0 1 536.4902 83.5244)" class="st5 st6">Aggregation</text>
<g>
	<polygon class="st3" points="24.3,128.2 0.6,80.8 24.3,33.2 71.7,33.2 95.4,80.8 71.7,128.2 	"/>
	<path d="M71.4,33.8l23.5,47l-23.5,47H24.6l-23.5-47l23.5-47H71.4 M72,32.8H24l-24,48l24,48h48l24-48L72,32.8L72,32.8z"/>
</g>
<rect x="5.2" y="72.9" class="st4" width="85.5" height="15.8"/>
<text transform="matrix(1 0 0 1 5.25 85.6553)" class="st5 st7">Generation</text>
<g>
	<g>
		<line class="st0" x1="95.6" y1="81.5" x2="136.8" y2="81.5"/>
		<g>
			<path d="M142.9,81.5c-2.8,1.1-6.4,2.9-8.5,4.8l1.7-4.8l-1.7-4.8C136.5,78.6,140,80.4,142.9,81.5z"/>
		</g>
	</g>
</g>
<g>
	<g>
		<line class="st0" x1="481.1" y1="81.5" x2="522.3" y2="81.5"/>
		<g>
			<path d="M528.4,81.5c-2.8,1.1-6.4,2.9-8.5,4.8l1.7-4.8l-1.7-4.8C522,78.6,525.5,80.4,528.4,81.5z"/>
		</g>
	</g>
</g>
<rect x="143.6" y="33.5" class="st0" width="337.5" height="96"/>
<g>
	<polyline class="st0" points="580.1,156.5 580.1,165.5 571.1,165.5 	"/>
	<line class="st8" x1="553.3" y1="165.5" x2="64" y2="165.5"/>
	<polyline class="st0" points="55.1,165.5 46.1,165.5 46.1,156.5 	"/>
	<line class="st9" x1="46.1" y1="140.2" x2="46.1" y2="17.7"/>
	<polyline class="st0" points="46.1,9.5 46.1,0.5 55.1,0.5 	"/>
	<line class="st8" x1="72.9" y1="0.5" x2="562.2" y2="0.5"/>
	<polyline class="st0" points="571.1,0.5 580.1,0.5 580.1,9.5 	"/>
	<line class="st9" x1="580.1" y1="25.8" x2="580.1" y2="148.3"/>
</g>
<g>
	<polygon class="st3" points="552.5,128 528.8,80.8 552.5,33.5 599.5,33.5 623.2,80.8 599.5,128 	"/>
	<path d="M599.1,34.2l23.2,46.5l-23.2,46.5h-46.1l-23.2-46.5l23.2-46.5H599.1 M600,32.8h-48l-24,48l24,48h48l24-48L600,32.8
		L600,32.8z"/>
</g>
<rect x="533.2" y="72.9" class="st4" width="85.5" height="15.8"/>
<text transform="matrix(1 0 0 1 536.4902 83.5244)" class="st5 st6">Aggregation</text>
<g>
	<polygon class="st3" points="24.5,128 0.8,80.8 24.5,33.5 71.5,33.5 95.2,80.8 71.5,128 	"/>
	<path d="M71.1,34.2l23.2,46.5l-23.2,46.5H24.9L1.7,80.8l23.3-46.5H71.1 M72,32.8H24l-24,48l24,48h48l24-48L72,32.8L72,32.8z"/>
</g>
<rect x="5.2" y="72.9" class="st4" width="85.5" height="15.8"/>
<text transform="matrix(1 0 0 1 5.25 85.6553)" class="st5 st7">Generation</text>
<g>
	<line class="st0" x1="95.6" y1="81.5" x2="133.8" y2="81.5"/>
	<g>
		<path d="M142.9,81.5c-4.3,1.6-9.5,4.3-12.8,7.1l2.6-7.1l-2.6-7.1C133.3,77.2,138.6,79.9,142.9,81.5z"/>
	</g>
</g>
<g>
	<line class="st0" x1="481.1" y1="81.5" x2="519.3" y2="81.5"/>
	<g>
		<path d="M528.4,81.5c-4.3,1.6-9.5,4.3-12.8,7.1l2.6-7.1l-2.6-7.1C518.8,77.2,524.1,79.9,528.4,81.5z"/>
	</g>
</g>
<rect x="143.6" y="33.5" class="st10" width="337.5" height="96"/>
<rect x="205.7" y="80.2" class="st4" width="215.3" height="16"/>
<text transform="matrix(1 0 0 1 293.7012 93.75)" class="st11 st7">Task</text>
<rect x="204.7" y="42.2" class="st4" width="215.3" height="16"/>
<text transform="matrix(1 0 0 1 293.0527 55.75)" class="st12 st7">Type</text>
<rect x="205.7" y="9.2" class="st4" width="215.3" height="16"/>
<text transform="matrix(1 0 0 1 279.832 22.75)" class="st11 st7">Workers</text>
</svg>
